  0
SECTION
  2
HEADER
  9
$ACADVER
  1
AC1027
  9
$ACADMAINTVER
 70
105
  9
$DWGCODEPAGE
  3
ANSI_1252
  9
$LASTSAVEDBY
  1
ezdxf
  9
$REQUIREDVERSIONS
160
0
  9
$INSBASE
 10
0.0
 20
0.0
 30
0.0
  9
$EXTMIN
 10
1e+20
 20
1e+20
 30
1e+20
  9
$EXTMAX
 10
-1e+20
 20
-1e+20
 30
-1e+20
  9
$LIMMIN
 10
0.0
 20
0.0
  9
$LIMMAX
 10
420.0
 20
297.0
  9
$ORTHOMODE
 70
0
  9
$REGENMODE
 70
1
  9
$FILLMODE
 70
1
  9
$QTEXTMODE
 70
0
  9
$MIRRTEXT
 70
1
  9
$LTSCALE
 40
1.0
  9
$ATTMODE
 70
1
  9
$TEXTSIZE
 40
2.5
  9
$TRACEWID
 40
1.0
  9
$TEXTSTYLE
  7
Standard
  9
$CLAYER
  8
0
  9
$CELTYPE
  6
ByLayer
  9
$CECOLOR
 62
256
  9
$CELTSCALE
 40
1.0
  9
$DISPSILH
 70
0
  9
$DIMSCALE
 40
1.0
  9
$DIMASZ
 40
2.5
  9
$DIMEXO
 40
0.625
  9
$DIMDLI
 40
3.75
  9
$DIMRND
 40
0.0
  9
$DIMDLE
 40
0.0
  9
$DIMEXE
 40
1.25
  9
$DIMTP
 40
0.0
  9
$DIMTM
 40
0.0
  9
$DIMTXT
 40
2.5
  9
$DIMCEN
 40
2.5
  9
$DIMTSZ
 40
0.0
  9
$DIMTOL
 70
0
  9
$DIMLIM
 70
0
  9
$DIMTIH
 70
0
  9
$DIMTOH
 70
0
  9
$DIMSE1
 70
0
  9
$DIMSE2
 70
0
  9
$DIMTAD
 70
1
  9
$DIMZIN
 70
8
  9
$DIMBLK
  1

  9
$DIMASO
 70
1
  9
$DIMSHO
 70
1
  9
$DIMPOST
  1

  9
$DIMAPOST
  1

  9
$DIMALT
 70
0
  9
$DIMALTD
 70
3
  9
$DIMALTF
 40
0.03937007874
  9
$DIMLFAC
 40
1.0
  9
$DIMTOFL
 70
1
  9
$DIMTVP
 40
0.0
  9
$DIMTIX
 70
0
  9
$DIMSOXD
 70
0
  9
$DIMSAH
 70
0
  9
$DIMBLK1
  1

  9
$DIMBLK2
  1

  9
$DIMSTYLE
  2
ISO-25
  9
$DIMCLRD
 70
0
  9
$DIMCLRE
 70
0
  9
$DIMCLRT
 70
0
  9
$DIMTFAC
 40
1.0
  9
$DIMGAP
 40
0.625
  9
$DIMJUST
 70
0
  9
$DIMSD1
 70
0
  9
$DIMSD2
 70
0
  9
$DIMTOLJ
 70
0
  9
$DIMTZIN
 70
8
  9
$DIMALTZ
 70
0
  9
$DIMALTTZ
 70
0
  9
$DIMUPT
 70
0
  9
$DIMDEC
 70
2
  9
$DIMTDEC
 70
2
  9
$DIMALTU
 70
2
  9
$DIMALTTD
 70
3
  9
$DIMTXSTY
  7
Standard
  9
$DIMAUNIT
 70
0
  9
$DIMADEC
 70
0
  9
$DIMALTRND
 40
0.0
  9
$DIMAZIN
 70
0
  9
$DIMDSEP
 70
44
  9
$DIMATFIT
 70
3
  9
$DIMFRAC
 70
0
  9
$DIMLDRBLK
  1

  9
$DIMLUNIT
 70
2
  9
$DIMLWD
 70
-2
  9
$DIMLWE
 70
-2
  9
$DIMTMOVE
 70
0
  9
$DIMFXL
 40
1.0
  9
$DIMFXLON
 70
0
  9
$DIMJOGANG
 40
0.785398163397
  9
$DIMTFILL
 70
0
  9
$DIMTFILLCLR
 70
0
  9
$DIMARCSYM
 70
0
  9
$DIMLTYPE
  6

  9
$DIMLTEX1
  6

  9
$DIMLTEX2
  6

  9
$DIMTXTDIRECTION
 70
0
  9
$LUNITS
 70
2
  9
$LUPREC
 70
4
  9
$SKETCHINC
 40
1.0
  9
$FILLETRAD
 40
10.0
  9
$AUNITS
 70
0
  9
$AUPREC
 70
2
  9
$MENU
  1
.
  9
$ELEVATION
 40
0.0
  9
$PELEVATION
 40
0.0
  9
$THICKNESS
 40
0.0
  9
$LIMCHECK
 70
0
  9
$CHAMFERA
 40
0.0
  9
$CHAMFERB
 40
0.0
  9
$CHAMFERC
 40
0.0
  9
$CHAMFERD
 40
0.0
  9
$SKPOLY
 70
0
  9
$TDCREATE
 40
2461235.016238426
  9
$TDUCREATE
 40
2458532.153996898
  9
$TDUPDATE
 40
2461235.016238426
  9
$TDUUPDATE
 40
2458532.1544311
  9
$TDINDWG
 40
0.0
  9
$TDUSRTIMER
 40
0.0
  9
$USRTIMER
 70
1
  9
$ANGBASE
 50
0.0
  9
$ANGDIR
 70
0
  9
$PDMODE
 70
0
  9
$PDSIZE
 40
0.0
  9
$PLINEWID
 40
0.0
  9
$SPLFRAME
 70
0
  9
$SPLINETYPE
 70
6
  9
$SPLINESEGS
 70
8
  9
$HANDSEED
  5
6F
  9
$SURFTAB1
 70
6
  9
$SURFTAB2
 70
6
  9
$SURFTYPE
 70
6
  9
$SURFU
 70
6
  9
$SURFV
 70
6
  9
$UCSBASE
  2

  9
$UCSNAME
  2

  9
$UCSORG
 10
0.0
 20
0.0
 30
0.0
  9
$UCSXDIR
 10
1.0
 20
0.0
 30
0.0
  9
$UCSYDIR
 10
0.0
 20
1.0
 30
0.0
  9
$UCSORTHOREF
  2

  9
$UCSORTHOVIEW
 70
0
  9
$UCSORGTOP
 10
0.0
 20
0.0
 30
0.0
  9
$UCSORGBOTTOM
 10
0.0
 20
0.0
 30
0.0
  9
$UCSORGLEFT
 10
0.0
 20
0.0
 30
0.0
  9
$UCSORGRIGHT
 10
0.0
 20
0.0
 30
0.0
  9
$UCSORGFRONT
 10
0.0
 20
0.0
 30
0.0
  9
$UCSORGBACK
 10
0.0
 20
0.0
 30
0.0
  9
$PUCSBASE
  2

  9
$PUCSNAME
  2

  9
$PUCSORG
 10
0.0
 20
0.0
 30
0.0
  9
$PUCSXDIR
 10
1.0
 20
0.0
 30
0.0
  9
$PUCSYDIR
 10
0.0
 20
1.0
 30
0.0
  9
$PUCSORTHOREF
  2

  9
$PUCSORTHOVIEW
 70
0
  9
$PUCSORGTOP
 10
0.0
 20
0.0
 30
0.0
  9
$PUCSORGBOTTOM
 10
0.0
 20
0.0
 30
0.0
  9
$PUCSORGLEFT
 10
0.0
 20
0.0
 30
0.0
  9
$PUCSORGRIGHT
 10
0.0
 20
0.0
 30
0.0
  9
$PUCSORGFRONT
 10
0.0
 20
0.0
 30
0.0
  9
$PUCSORGBACK
 10
0.0
 20
0.0
 30
0.0
  9
$USERI1
 70
0
  9
$USERI2
 70
0
  9
$USERI3
 70
0
  9
$USERI4
 70
0
  9
$USERI5
 70
0
  9
$USERR1
 40
0.0
  9
$USERR2
 40
0.0
  9
$USERR3
 40
0.0
  9
$USERR4
 40
0.0
  9
$USERR5
 40
0.0
  9
$WORLDVIEW
 70
1
  9
$SHADEDGE
 70
3
  9
$SHADEDIF
 70
70
  9
$TILEMODE
 70
1
  9
$MAXACTVP
 70
64
  9
$PINSBASE
 10
0.0
 20
0.0
 30
0.0
  9
$PLIMCHECK
 70
0
  9
$PEXTMIN
 10
1e+20
 20
1e+20
 30
1e+20
  9
$PEXTMAX
 10
-1e+20
 20
-1e+20
 30
-1e+20
  9
$PLIMMIN
 10
0.0
 20
0.0
  9
$PLIMMAX
 10
420.0
 20
297.0
  9
$UNITMODE
 70
0
  9
$VISRETAIN
 70
1
  9
$PLINEGEN
 70
0
  9
$PSLTSCALE
 70
1
  9
$TREEDEPTH
 70
3020
  9
$CMLSTYLE
  2
Standard
  9
$CMLJUST
 70
0
  9
$CMLSCALE
 40
20.0
  9
$PROXYGRAPHICS
 70
1
  9
$MEASUREMENT
 70
1
  9
$CELWEIGHT
370
-1
  9
$ENDCAPS
280
0
  9
$JOINSTYLE
280
0
  9
$LWDISPLAY
290
0
  9
$INSUNITS
 70
4
  9
$HYPERLINKBASE
  1

  9
$STYLESHEET
  1

  9
$XEDIT
290
1
  9
$CEPSNTYPE
380
0
  9
$PSTYLEMODE
290
1
  9
$FINGERPRINTGUID
  2
{4F4AFF2B-E929-4E94-92FE-E39E9FFD7EE7}
  9
$VERSIONGUID
  2
{9DFF197F-F38A-43AB-A97D-353FE529BC3C}
  9
$EXTNAMES
290
1
  9
$PSVPSCALE
 40
0.0
  9
$OLESTARTUP
290
0
  9
$SORTENTS
280
127
  9
$INDEXCTL
280
0
  9
$HIDETEXT
280
1
  9
$XCLIPFRAME
280
1
  9
$HALOGAP
280
0
  9
$OBSCOLOR
 70
257
  9
$OBSLTYPE
280
0
  9
$INTERSECTIONDISPLAY
280
0
  9
$INTERSECTIONCOLOR
 70
257
  9
$DIMASSOC
280
2
  9
$PROJECTNAME
  1

  9
$CAMERADISPLAY
290
0
  9
$LENSLENGTH
 40
50.0
  9
$CAMERAHEIGHT
 40
0.0
  9
$STEPSPERSEC
 40
24.0
  9
$STEPSIZE
 40
100.0
  9
$3DDWFPREC
 40
2.0
  9
$PSOLWIDTH
 40
0.005
  9
$PSOLHEIGHT
 40
0.08
  9
$LOFTANG1
 40
1.570796326795
  9
$LOFTANG2
 40
1.570796326795
  9
$LOFTMAG1
 40
0.0
  9
$LOFTMAG2
 40
0.0
  9
$LOFTPARAM
 70
7
  9
$LOFTNORMALS
280
1
  9
$LATITUDE
 40
37.795
  9
$LONGITUDE
 40
-122.394
  9
$NORTHDIRECTION
 40
0.0
  9
$TIMEZONE
 70
-8000
  9
$LIGHTGLYPHDISPLAY
280
1
  9
$TILEMODELIGHTSYNCH
280
1
  9
$CMATERIAL
347
20
  9
$SOLIDHIST
280
0
  9
$SHOWHIST
280
1
  9
$DWFFRAME
280
2
  9
$DGNFRAME
280
2
  9
$REALWORLDSCALE
290
1
  9
$INTERFERECOLOR
 62
256
  9
$CSHADOW
280
0
  9
$SHADOWPLANELOCATION
 40
0.0
  0
ENDSEC
  0
SECTION
  2
CLASSES
  0
CLASS
  1
ACDBDICTIONARYWDFLT
  2
AcDbDictionaryWithDefault
  3
ObjectDBX Classes
 90
0
 91
0
280
0
281
0
  0
CLASS
  1
SUN
  2
AcDbSun
  3
SCENEOE
 90
1153
 91
0
280
0
281
0
  0
CLASS
  1
VISUALSTYLE
  2
AcDbVisualStyle
  3
ObjectDBX Classes
 90
4095
 91
0
280
0
281
0
  0
CLASS
  1
MATERIAL
  2
AcDbMaterial
  3
ObjectDBX Classes
 90
1153
 91
0
280
0
281
0
  0
CLASS
  1
SCALE
  2
AcDbScale
  3
ObjectDBX Classes
 90
1153
 91
0
280
0
281
0
  0
CLASS
  1
TABLESTYLE
  2
AcDbTableStyle
  3
ObjectDBX Classes
 90
4095
 91
0
280
0
281
0
  0
CLASS
  1
MLEADERSTYLE
  2
AcDbMLeaderStyle
  3
ACDB_MLEADERSTYLE_CLASS
 90
4095
 91
0
280
0
281
0
  0
CLASS
  1
DICTIONARYVAR
  2
AcDbDictionaryVar
  3
ObjectDBX Classes
 90
0
 91
0
280
0
281
0
  0
CLASS
  1
CELLSTYLEMAP
  2
AcDbCellStyleMap
  3
ObjectDBX Classes
 90
1152
 91
0
280
0
281
0
  0
CLASS
  1
MENTALRAYRENDERSETTINGS
  2
AcDbMentalRayRenderSettings
  3
SCENEOE
 90
1024
 91
0
280
0
281
0
  0
CLASS
  1
ACDBDETAILVIEWSTYLE
  2
AcDbDetailViewStyle
  3
ObjectDBX Classes
 90
1025
 91
0
280
0
281
0
  0
CLASS
  1
ACDBSECTIONVIEWSTYLE
  2
AcDbSectionViewStyle
  3
ObjectDBX Classes
 90
1025
 91
0
280
0
281
0
  0
CLASS
  1
RASTERVARIABLES
  2
AcDbRasterVariables
  3
ISM
 90
0
 91
0
280
0
281
0
  0
CLASS
  1
LAYOUT
  2
AcDbLayout
  3
ObjectDBX Classes
 90
0
 91
0
280
0
281
0
  0
CLASS
  1
ACDBPLACEHOLDER
  2
AcDbPlaceHolder
  3
ObjectDBX Classes
 90
0
 91
0
280
0
281
0
  0
ENDSEC
  0
SECTION
  2
TABLES
  0
TABLE
  2
VPORT
  5
8
330
0
100
AcDbSymbolTable
 70
1
  0
VPORT
  5
23
330
8
100
AcDbSymbolTableRecord
100
AcDbViewportTableRecord
  2
*Active
 70
0
 10
0.0
 20
0.0
 11
1.0
 21
1.0
 12
0.0
 22
0.0
 13
0.0
 23
0.0
 14
0.5
 24
0.5
 15
0.5
 25
0.5
 16
0.0
 26
0.0
 36
1.0
 17
0.0
 27
0.0
 37
0.0
 40
1000.0
 41
1.34
 42
50.0
 43
0.0
 44
0.0
 50
0.0
 51
0.0
 71
0
 72
1000
 73
1
 74
3
 75
0
 76
0
 77
0
 78
0
281
0
 65
0
146
0.0
  0
ENDTAB
  0
TABLE
  2
LTYPE
  5
2
330
0
100
AcDbSymbolTable
 70
3
  0
LTYPE
  5
24
330
2
100
AcDbSymbolTableRecord
100
AcDbLinetypeTableRecord
  2
ByBlock
 70
0
  3

 72
65
 73
0
 40
0.0
  0
LTYPE
  5
25
330
2
100
AcDbSymbolTableRecord
100
AcDbLinetypeTableRecord
  2
ByLayer
 70
0
  3

 72
65
 73
0
 40
0.0
  0
LTYPE
  5
26
330
2
100
AcDbSymbolTableRecord
100
AcDbLinetypeTableRecord
  2
Continuous
 70
0
  3

 72
65
 73
0
 40
0.0
  0
ENDTAB
  0
TABLE
  2
LAYER
  5
1
330
0
100
AcDbSymbolTable
 70
5
  0
LAYER
  5
27
330
1
100
AcDbSymbolTableRecord
100
AcDbLayerTableRecord
  2
0
 70
0
 62
7
  6
Continuous
370
-3
390
13
347
21
  0
LAYER
  5
28
330
1
100
AcDbSymbolTableRecord
100
AcDbLayerTableRecord
  2
Defpoints
 70
0
 62
7
  6
Continuous
290
0
370
-3
390
13
347
21
  0
LAYER
  5
2F
330
1
100
AcDbSymbolTableRecord
100
AcDbLayerTableRecord
  2
CADASTRE_PARCELLES
 70
0
 62
7
  6
Continuous
370
-3
390
13
347
21
  0
LAYER
  5
30
330
1
100
AcDbSymbolTableRecord
100
AcDbLayerTableRecord
  2
CADASTRE_BATI
 70
0
 62
2
  6
Continuous
370
-3
390
13
347
21
  0
LAYER
  5
31
330
1
100
AcDbSymbolTableRecord
100
AcDbLayerTableRecord
  2
CADASTRE_CADRE
 70
0
 62
8
  6
Continuous
370
-3
390
13
347
21
  0
ENDTAB
  0
TABLE
  2
STYLE
  5
5
330
0
100
AcDbSymbolTable
 70
1
  0
STYLE
  5
29
330
5
100
AcDbSymbolTableRecord
100
AcDbTextStyleTableRecord
  2
Standard
 70
0
 40
0.0
 41
1.0
 50
0.0
 71
0
 42
2.5
  3
txt
  4

  0
ENDTAB
  0
TABLE
  2
VIEW
  5
7
330
0
100
AcDbSymbolTable
 70
0
  0
ENDTAB
  0
TABLE
  2
UCS
  5
6
330
0
100
AcDbSymbolTable
 70
0
  0
ENDTAB
  0
TABLE
  2
APPID
  5
3
330
0
100
AcDbSymbolTable
 70
3
  0
APPID
  5
2A
330
3
100
AcDbSymbolTableRecord
100
AcDbRegAppTableRecord
  2
ACAD
 70
0
  0
APPID
  5
6C
330
3
100
AcDbSymbolTableRecord
100
AcDbRegAppTableRecord
  2
HATCHBACKGROUNDCOLOR
 70
0
  0
APPID
  5
6D
330
3
100
AcDbSymbolTableRecord
100
AcDbRegAppTableRecord
  2
EZDXF
 70
0
  0
ENDTAB
  0
TABLE
  2
DIMSTYLE
  5
4
330
0
100
AcDbSymbolTable
 70
1
100
AcDbDimStyleTable
  0
DIMSTYLE
105
2B
330
4
100
AcDbSymbolTableRecord
100
AcDbDimStyleTableRecord
  2
Standard
 70
0
 40
1.0
 41
2.5
 42
0.625
 43
3.75
 44
1.25
 45
0.0
 46
0.0
 47
0.0
 48
0.0
 49
2.5
140
2.5
141
2.5
142
0.0
143
0.03937007874
144
1.0
145
0.0
146
1.0
147
0.625
148
0.0
 69
0
 70
0
 71
0
 72
0
 73
0
 74
0
 75
0
 76
0
 77
1
 78
8
 79
3
170
0
171
3
172
1
173
0
174
0
175
0
176
0
177
0
178
0
179
2
271
2
272
2
273
2
274
3
275
0
276
0
277
2
278
44
279
0
280
0
281
0
282
0
283
0
284
8
285
0
286
0
288
0
289
3
290
0
371
-2
372
-2
  0
ENDTAB
  0
TABLE
  2
BLOCK_RECORD
  5
9
330
0
100
AcDbSymbolTable
 70
2
  0
BLOCK_RECORD
  5
17
330
9
100
AcDbSymbolTableRecord
100
AcDbBlockTableRecord
  2
*Model_Space
340
1A
 70
0
280
1
281
0
  0
BLOCK_RECORD
  5
1B
330
9
100
AcDbSymbolTableRecord
100
AcDbBlockTableRecord
  2
*Paper_Space
340
1E
 70
0
280
1
281
0
  0
ENDTAB
  0
ENDSEC
  0
SECTION
  2
BLOCKS
  0
BLOCK
  5
18
330
17
100
AcDbEntity
  8
0
100
AcDbBlockBegin
  2
*Model_Space
 70
0
 10
0.0
 20
0.0
 30
0.0
  3
*Model_Space
  1

  0
ENDBLK
  5
19
330
17
100
AcDbEntity
  8
0
100
AcDbBlockEnd
  0
BLOCK
  5
1C
330
1B
100
AcDbEntity
  8
0
100
AcDbBlockBegin
  2
*Paper_Space
 70
0
 10
0.0
 20
0.0
 30
0.0
  3
*Paper_Space
  1

  0
ENDBLK
  5
1D
330
1B
100
AcDbEntity
  8
0
100
AcDbBlockEnd
  0
ENDSEC
  0
SECTION
  2
ENTITIES
  0
LINE
  5
32
330
17
100
AcDbEntity
  8
CADASTRE_PARCELLES
100
AcDbLine
 10
-2167.654530610889
 20
-15681.625737808645
 30
0.0
 11
58899.23793403432
 21
-15715.495339594781
 31
0.0
  0
LINE
  5
33
330
17
100
AcDbEntity
  8
CADASTRE_PARCELLES
100
AcDbLine
 10
16951.73581666313
 20
38865.368329919875
 30
0.0
 11
-2167.654530610889
 21
23928.873835131526
 31
0.0
  0
LINE
  5
34
330
17
100
AcDbEntity
  8
CADASTRE_PARCELLES
100
AcDbLine
 10
43590.177815174684
 20
27993.22607833892
 30
0.0
 11
58899.23793403432
 21
8365.791702643037
 31
0.0
  0
LINE
  5
35
330
17
100
AcDbEntity
  8
CADASTRE_PARCELLES
100
AcDbLine
 10
24978.831498418003
 20
38560.54191105068
 30
0.0
 11
40016.93480089307
 21
19322.607958689332
 31
0.0
  0
LINE
  5
36
330
17
100
AcDbEntity
  8
CADASTRE_PARCELLES
100
AcDbLine
 10
29805.2497880999
 20
32328.535137698054
 30
0.0
 11
10160.880609182641
 21
16985.6054186821
 31
0.0
  0
LINE
  5
37
330
17
100
AcDbEntity
  8
CADASTRE_PARCELLES
100
AcDbLine
 10
-880.6096534244716
 20
2946.6553777456284
 30
0.0
 11
29551.22777284123
 21
1828.958511352539
 31
0.0
  0
LINE
  5
38
330
17
100
AcDbEntity
  8
CADASTRE_PARCELLES
100
AcDbLine
 10
44504.65707015246
 20
10855.207451619208
 30
0.0
 11
43607.11261630058
 21
-15664.690936915576
 31
0.0
  0
LINE
  5
39
330
17
100
AcDbEntity
  8
CADASTRE_PARCELLES
100
AcDbLine
 10
-880.6096534244716
 20
2963.5901786386967
 30
0.0
 11
16342.08298008889
 21
2133.784929290414
 31
0.0
  0
LINE
  5
3A
330
17
100
AcDbEntity
  8
CADASTRE_PARCELLES
100
AcDbLine
 10
58899.23793403432
 20
36545.30059080571
 30
0.0
 11
45063.50550358184
 21
26062.658762559295
 31
0.0
  0
LINE
  5
3B
330
17
100
AcDbEntity
  8
CADASTRE_PARCELLES
100
AcDbLine
 10
3674.851819872856
 20
2709.5681643113494
 30
0.0
 11
44149.02624883689
 21
1066.8924655765295
 31
0.0
  0
LINE
  5
3C
330
17
100
AcDbEntity
  8
CADASTRE_PARCELLES
100
AcDbLine
 10
-880.6096534244716
 20
2895.8509750664234
 30
0.0
 11
16206.60457201302
 21
2218.458934687078
 31
0.0
  0
LINE
  5
3D
330
17
100
AcDbEntity
  8
CADASTRE_PARCELLES
100
AcDbLine
 10
32531.752751674503
 20
18069.432684220374
 30
0.0
 11
12413.209144258872
 21
2455.5461490526795
 31
0.0
  0
LINE
  5
3E
330
17
100
AcDbEntity
  8
CADASTRE_PARCELLES
100
AcDbLine
 10
24403.04826386273
 20
-1168.5012681409717
 30
0.0
 11
36477.56138839759
 21
-1405.5884825065732
 31
0.0
  0
LINE
  5
3F
330
17
100
AcDbEntity
  8
CADASTRE_PARCELLES
100
AcDbLine
 10
52464.0135478694
 20
237.08721529692411
 30
0.0
 11
51939.03471622616
 21
-15647.756136022508
 31
0.0
  0
LINE
  5
40
330
17
100
AcDbEntity
  8
CADASTRE_PARCELLES
100
AcDbLine
 10
-33.8696027174592
 20
25639.28873743862
 30
0.0
 11
5977.984758093953
 21
17696.867061778903
 31
0.0
  0
LINE
  5
41
330
17
100
AcDbEntity
  8
CADASTRE_PARCELLES
100
AcDbLine
 10
35359.86452130601
 20
38865.368329919875
 30
0.0
 11
43776.46062639542
 21
27756.13886397332
 31
0.0
  0
LINE
  5
42
330
17
100
AcDbEntity
  8
CADASTRE_PARCELLES
100
AcDbLine
 10
36054.19136304408
 20
-1405.5884825065732
 30
0.0
 11
44081.287044798955
 21
-1862.828110344708
 31
0.0
  0
LINE
  5
43
330
17
100
AcDbEntity
  8
CADASTRE_PARCELLES
100
AcDbLine
 10
54259.10245557316
 20
1117.6968682557344
 30
0.0
 11
58899.23793403432
 21
-4911.092292517424
 31
0.0
  0
LINE
  5
44
330
17
100
AcDbEntity
  8
CADASTRE_PARCELLES
100
AcDbLine
 10
42235.39373395033
 20
16680.779000744224
 30
0.0
 11
44521.59187127836
 21
10719.729043543339
 31
0.0
  0
LINE
  5
45
330
17
100
AcDbEntity
  8
CADASTRE_PARCELLES
100
AcDbLine
 10
27857.747671194375
 20
-1270.1100744307041
 30
0.0
 11
31312.44707852602
 21
-1320.914477109909
 31
0.0
  0
LINE
  5
46
330
17
100
AcDbEntity
  8
CADASTRE_PARCELLES
100
AcDbLine
 10
1100.762065500021
 20
2794.242168776691
 30
0.0
 11
23403.89500395395
 21
1947.5021185353398
 31
0.0
  0
LINE
  5
47
330
17
100
AcDbEntity
  8
CADASTRE_PARCELLES
100
AcDbLine
 10
58899.23793403432
 20
17662.997459992766
 30
0.0
 11
54394.580863649026
 21
14174.428450874984
 31
0.0
  0
LINE
  5
48
330
17
100
AcDbEntity
  8
CADASTRE_PARCELLES
100
AcDbLine
 10
1913.6325141880661
 20
2743.437766097486
 30
0.0
 11
20914.479254512116
 21
1964.4369194284081
 31
0.0
  0
LINE
  5
49
330
17
100
AcDbEntity
  8
CADASTRE_PARCELLES
100
AcDbLine
 10
44487.72226902656
 20
9872.988993301988
 30
0.0
 11
44115.15664681792
 21
389.5004251971841
 31
0.0
  0
LINE
  5
4A
330
17
100
AcDbEntity
  8
CADASTRE_PARCELLES
100
AcDbLine
 10
8247.248094296083
 20
2523.285352624953
 30
0.0
 11
16308.213378069922
 21
2167.6545310765505
 31
0.0
  0
LINE
  5
4B
330
17
100
AcDbEntity
  8
CADASTRE_PARCELLES
100
AcDbLine
 10
5977.984758093953
 20
17713.80186267197
 30
0.0
 11
10245.554614346474
 21
17002.54022050649
 31
0.0
  0
LINE
  5
4C
330
17
100
AcDbEntity
  8
CADASTRE_PARCELLES
100
AcDbLine
 10
1100.762065500021
 20
2845.0465723872185
 30
0.0
 11
25215.918712550774
 21
1761.2193068489432
 31
0.0
  0
LINE
  5
4D
330
17
100
AcDbEntity
  8
CADASTRE_PARCELLES
100
AcDbLine
 10
40660.45723948628
 20
38865.368329919875
 30
0.0
 11
37307.36663821153
 21
36325.148177333176
 31
0.0
  0
LINE
  5
4E
330
17
100
AcDbEntity
  8
CADASTRE_PARCELLES
100
AcDbLine
 10
8230.313293403015
 20
2489.415750838816
 30
0.0
 11
9805.24978786707
 21
2438.6113472282887
 31
0.0
  0
LINE
  5
4F
330
17
100
AcDbEntity
  8
CADASTRE_PARCELLES
100
AcDbLine
 10
27756.138865137473
 20
1879.762914031744
 30
0.0
 11
22607.95935615897
 21
1879.762914031744
 31
0.0
  0
LINE
  5
50
330
17
100
AcDbEntity
  8
CADASTRE_PARCELLES
100
AcDbLine
 10
21930.567315546796
 20
1930.5673176422715
 30
0.0
 11
25249.78831456974
 21
1879.762914031744
 31
0.0
  0
LINE
  5
51
330
17
100
AcDbEntity
  8
CADASTRE_PARCELLES
100
AcDbLine
 10
8907.70533401519
 20
2472.480949945748
 30
0.0
 11
23488.56900888495
 21
1879.762914031744
 31
0.0
  0
LINE
  5
52
330
17
100
AcDbEntity
  8
CADASTRE_PARCELLES
100
AcDbLine
 10
24758.6790851783
 20
38865.368329919875
 30
0.0
 11
40677.392040379345
 21
18543.607112020254
 31
0.0
  0
LINE
  5
53
330
17
100
AcDbEntity
  8
CADASTRE_PARCELLES
100
AcDbLine
 10
17358.17104112357
 20
2184.589331969619
 30
0.0
 11
18933.107535587624
 21
2066.0457257181406
 31
0.0
  0
LINE
  5
54
330
17
100
AcDbEntity
  8
CADASTRE_PARCELLES
100
AcDbLine
 10
54276.037256466225
 20
1100.7620673626661
 30
0.0
 11
52430.14394585043
 21
186.28281261771917
 31
0.0
  0
LINE
  5
55
330
17
100
AcDbEntity
  8
CADASTRE_PARCELLES
100
AcDbLine
 10
1100.762065500021
 20
2878.916174173355
 30
0.0
 11
14360.711261164397
 21
2218.458934687078
 31
0.0
  0
LINE
  5
56
330
17
100
AcDbEntity
  8
CADASTRE_PARCELLES
100
AcDbLine
 10
25232.853513676673
 20
1862.8281131386757
 30
0.0
 11
24030.48264142126
 21
1845.8933122456074
 31
0.0
  0
LINE
  5
57
330
17
100
AcDbEntity
  8
CADASTRE_PARCELLES
100
AcDbLine
 10
39796.782387653366
 20
19627.43437755853
 30
0.0
 11
42218.45893305726
 21
16697.713801637292
 31
0.0
  0
LINE
  5
58
330
17
100
AcDbEntity
  8
CADASTRE_PARCELLES
100
AcDbLine
 10
31600.338695803657
 20
-1337.8492789343
 30
0.0
 11
35122.77730717324
 21
-1354.7840798273683
 31
0.0
  0
LINE
  5
59
330
17
100
AcDbEntity
  8
CADASTRE_PARCELLES
100
AcDbLine
 10
20660.457239253446
 20
-14563.928870484233
 30
0.0
 11
20355.63082084991
 21
-15664.690936915576
 31
0.0
  0
LINE
  5
5A
330
17
100
AcDbEntity
  8
CADASTRE_PARCELLES
100
AcDbLine
 10
20643.522438127548
 20
-14546.994069591165
 30
0.0
 11
20321.761218830943
 21
-15664.690936915576
 31
0.0
  0
LINE
  5
5B
330
17
100
AcDbEntity
  8
CADASTRE_PARCELLES
100
AcDbLine
 10
20609.65283610858
 20
-14546.994069591165
 30
0.0
 11
20287.891616811976
 21
-15664.690936915576
 31
0.0
  0
LINE
  5
5C
330
17
100
AcDbEntity
  8
CADASTRE_PARCELLES
100
AcDbLine
 10
41558.001693338156
 20
30668.92463900149
 30
0.0
 11
44775.6138863042
 21
26486.028788611293
 31
0.0
  0
LINE
  5
5D
330
17
100
AcDbEntity
  8
CADASTRE_PARCELLES
100
AcDbLine
 10
20575.783234089613
 20
-14530.059268698096
 30
0.0
 11
20254.02201479301
 21
-15664.690936915576
 31
0.0
  0
LINE
  5
5E
330
17
100
AcDbEntity
  8
CADASTRE_PARCELLES
100
AcDbLine
 10
35867.90855182335
 20
-1371.7188807204366
 30
0.0
 11
34750.21168473177
 21
-1388.653681613505
 31
0.0
  0
LINE
  5
5F
330
17
100
AcDbEntity
  8
CADASTRE_PARCELLES
100
AcDbLine
 10
52023.708721389994
 20
-13784.928023815155
 30
0.0
 11
51989.83911937103
 21
-14597.798473201692
 31
0.0
  0
LINE
  5
60
330
17
100
AcDbEntity
  8
CADASTRE_PARCELLES
100
AcDbLine
 10
38187.976291170344
 20
21608.80609601736
 30
0.0
 11
42184.589330805466
 21
16748.51820524782
 31
0.0
  0
LINE
  5
61
330
17
100
AcDbEntity
  8
CADASTRE_PARCELLES
100
AcDbLine
 10
58712.95512281358
 20
36409.82218272984
 30
0.0
 11
57849.28027098067
 21
35766.29974413663
 31
0.0
  0
LINE
  5
62
330
17
100
AcDbEntity
  8
CADASTRE_PARCELLES
100
AcDbLine
 10
7061.812023166567
 20
2624.8941589146852
 30
0.0
 11
6299.7459773905575
 21
2591.0245571285486
 31
0.0
  0
LINE
  5
63
330
17
100
AcDbEntity
  8
CADASTRE_PARCELLES
100
AcDbLine
 10
57595.258255722
 20
10008.467401377857
 30
0.0
 11
58899.23793403432
 21
8348.856901749969
 31
0.0
  0
LWPOLYLINE
  5
64
330
17
100
AcDbEntity
  8
CADASTRE_BATI
100
AcDbPolyline
 90
9
 70
1
 10
28501.270109787583
 20
-1303.9796762168407
 10
27840.812870068476
 20
-9398.814561776817
 10
27011.00762025453
 20
-9381.879760883749
 10
26807.790008140728
 20
-15647.756136022508
 10
35529.212531633675
 20
-15647.756136022508
 10
36003.38695989922
 20
-9652.836577035487
 10
35241.32091435604
 20
-9568.162571638823
 10
35224.38611323014
 20
-9229.466550983489
 10
35749.36494464055
 20
-1422.5232833996415
  0
LWPOLYLINE
  5
65
330
17
100
AcDbEntity
  8
CADASTRE_BATI
100
AcDbPolyline
 90
4
 70
1
 10
54259.10245557316
 20
1049.9576646834612
 10
52464.0135478694
 20
186.28281261771917
 10
51972.90431824513
 20
-15647.756136022508
 10
54919.55969505943
 20
-15647.756136022508
  0
LWPOLYLINE
  5
66
330
17
100
AcDbEntity
  8
CADASTRE_BATI
100
AcDbPolyline
 90
11
 70
1
 10
7586.790854809806
 20
14665.537680499256
 10
321.7612188309431
 20
8958.50973855704
 10
186.28281052224338
 20
8941.57493673265
 10
-321.7612199950963
 20
9381.879763677716
 10
-1287.0448778849095
 20
3928.873836994171
 10
2032.176121370867
 20
6282.811177894473
 10
2133.7849274277687
 20
6282.811177894473
 10
3065.1989832986146
 20
5317.527520470321
 10
3149.872988462448
 20
5334.4623213633895
 10
10313.293818384409
 20
10922.946656122804
 10
10330.228619277477
 20
10990.685859695077
  0
LWPOLYLINE
  5
67
330
17
100
AcDbEntity
  8
CADASTRE_BATI
100
AcDbPolyline
 90
16
 70
1
 10
31888.230313081294
 20
29602.03217435628
 10
26689.246400957927
 20
25673.158339224756
 10
32531.752751674503
 20
18204.911092296243
 10
32548.68755256757
 20
18052.497883327305
 10
31837.425909936428
 20
17442.845046520233
 10
35698.56054172851
 20
12633.361558429897
 10
35732.43014374748
 20
12480.94834946096
 10
34530.059271492064
 20
11566.469094716012
 10
34225.23285332136
 20
3539.373413659632
 10
28077.900084434077
 20
3590.177816338837
 10
27942.421676358208
 20
1930.5673176422715
 10
34479.25486858003
 20
1541.0668943077326
 10
44115.15664681792
 20
1117.6968682557344
 10
44487.72226902656
 20
10804.403048940003
 10
42252.32853507623
 20
16596.10499534756
 10
37730.73666356504
 20
22099.915325641632
  0
LWPOLYLINE
  5
68
330
17
100
AcDbEntity
  8
CADASTRE_BATI
100
AcDbPolyline
 90
3
 70
1
 10
58865.36833201535
 20
34360.71125976741
 10
56850.12701107189
 20
32768.83996464312
 10
54005.08044031449
 20
30736.663842573762
  0
LWPOLYLINE
  5
69
330
17
100
AcDbEntity
  8
CADASTRE_BATI
100
AcDbPolyline
 90
4
 70
1
 10
20711.261642398313
 20
38086.3674832508
 10
15088.90770492144
 20
33767.99322478473
 10
19559.695173287764
 20
27925.486874766648
 10
25131.24470761977
 20
32108.382725156844
  0
LWPOLYLINE
  5
6A
330
17
100
AcDbEntity
  8
CADASTRE_BATI
100
AcDbPolyline
 90
3
 70
1
 10
48992.379339411855
 20
36646.90939709544
 10
50889.077053172514
 20
34360.71125976741
 10
51668.07790007442
 20
38729.889921844006
  0
LWPOLYLINE
  5
6B
330
17
100
AcDbEntity
  8
CADASTRE_CADRE
100
AcDbPolyline
 90
4
 70
1
 10
-2218.4589337557554
 20
38916.17273259908
 10
58966.97713807225
 20
38916.17273259908
 10
58966.97713807225
 20
-16680.778997950256
 10
-2218.4589337557554
 20
-16680.778997950256
  0
ENDSEC
  0
SECTION
  2
OBJECTS
  0
DICTIONARY
  5
A
330
0
100
AcDbDictionary
281
1
  3
ACAD_COLOR
350
B
  3
ACAD_GROUP
350
C
  3
ACAD_LAYOUT
350
D
  3
ACAD_MATERIAL
350
E
  3
ACAD_MLEADERSTYLE
350
F
  3
ACAD_MLINESTYLE
350
10
  3
ACAD_PLOTSETTINGS
350
11
  3
ACAD_PLOTSTYLENAME
350
12
  3
ACAD_SCALELIST
350
14
  3
ACAD_TABLESTYLE
350
15
  3
ACAD_VISUALSTYLE
350
16
  3
EZDXF_META
350
2D
  0
DICTIONARY
  5
B
330
A
100
AcDbDictionary
281
1
  0
DICTIONARY
  5
C
330
A
100
AcDbDictionary
281
1
  0
DICTIONARY
  5
D
330
A
100
AcDbDictionary
281
1
  3
Model
350
1A
  3
Layout1
350
1E
  0
DICTIONARY
  5
E
330
A
100
AcDbDictionary
281
1
  3
ByBlock
350
1F
  3
ByLayer
350
20
  3
Global
350
21
  0
DICTIONARY
  5
F
330
A
100
AcDbDictionary
281
1
  3
Standard
350
2C
  0
DICTIONARY
  5
10
330
A
100
AcDbDictionary
281
1
  3
Standard
350
22
  0
DICTIONARY
  5
11
330
A
100
AcDbDictionary
281
1
  0
ACDBDICTIONARYWDFLT
  5
12
330
A
100
AcDbDictionary
281
1
  3
Normal
350
13
100
AcDbDictionaryWithDefault
340
13
  0
ACDBPLACEHOLDER
  5
13
330
12
  0
DICTIONARY
  5
14
330
A
100
AcDbDictionary
281
1
  0
DICTIONARY
  5
15
330
A
100
AcDbDictionary
281
1
  0
DICTIONARY
  5
16
330
A
100
AcDbDictionary
281
1
  0
LAYOUT
  5
1A
330
D
100
AcDbPlotSettings
  1

  4
A3
  6

 40
7.5
 41
20.0
 42
7.5
 43
20.0
 44
420.0
 45
297.0
 46
0.0
 47
0.0
 48
0.0
 49
0.0
140
0.0
141
0.0
142
1.0
143
1.0
 70
1024
 72
1
 73
0
 74
5
  7

 75
16
 76
0
 77
2
 78
300
147
1.0
148
0.0
149
0.0
100
AcDbLayout
  1
Model
 70
1
 71
0
 10
0.0
 20
0.0
 11
420.0
 21
297.0
 12
0.0
 22
0.0
 32
0.0
 14
1e+20
 24
1e+20
 34
1e+20
 15
-1e+20
 25
-1e+20
 35
-1e+20
146
0.0
 13
0.0
 23
0.0
 33
0.0
 16
1.0
 26
0.0
 36
0.0
 17
0.0
 27
1.0
 37
0.0
 76
1
330
17
  0
LAYOUT
  5
1E
330
D
100
AcDbPlotSettings
  1

  4
A3
  6

 40
7.5
 41
20.0
 42
7.5
 43
20.0
 44
420.0
 45
297.0
 46
0.0
 47
0.0
 48
0.0
 49
0.0
140
0.0
141
0.0
142
1.0
143
1.0
 70
0
 72
1
 73
0
 74
5
  7

 75
16
 76
0
 77
2
 78
300
147
1.0
148
0.0
149
0.0
100
AcDbLayout
  1
Layout1
 70
1
 71
1
 10
0.0
 20
0.0
 11
420.0
 21
297.0
 12
0.0
 22
0.0
 32
0.0
 14
1e+20
 24
1e+20
 34
1e+20
 15
-1e+20
 25
-1e+20
 35
-1e+20
146
0.0
 13
0.0
 23
0.0
 33
0.0
 16
1.0
 26
0.0
 36
0.0
 17
0.0
 27
1.0
 37
0.0
 76
1
330
1B
  0
MATERIAL
  5
1F
102
{ACAD_REACTORS
330
E
102
}
330
E
100
AcDbMaterial
  1
ByBlock
  2

 70
0
 40
1.0
 71
1
 41
1.0
 91
-1023410177
 42
1.0
 72
1
  3

 73
1
 74
1
 75
1
 44
0.5
 73
0
 45
1.0
 46
1.0
 77
1
  4

 78
1
 79
1
170
1
 48
1.0
171
1
  6

172
1
173
1
174
1
140
1.0
141
1.0
175
1
  7

176
1
177
1
178
1
143
1.0
179
1
  8

270
1
271
1
272
1
145
1.0
146
1.0
273
1
  9

274
1
275
1
276
1
 42
1.0
 72
1
  3

 73
1
 74
1
 75
1
 94
63
  0
MATERIAL
  5
20
102
{ACAD_REACTORS
330
E
102
}
330
E
100
AcDbMaterial
  1
ByLayer
  2

 70
0
 40
1.0
 71
1
 41
1.0
 91
-1023410177
 42
1.0
 72
1
  3

 73
1
 74
1
 75
1
 44
0.5
 73
0
 45
1.0
 46
1.0
 77
1
  4

 78
1
 79
1
170
1
 48
1.0
171
1
  6

172
1
173
1
174
1
140
1.0
141
1.0
175
1
  7

176
1
177
1
178
1
143
1.0
179
1
  8

270
1
271
1
272
1
145
1.0
146
1.0
273
1
  9

274
1
275
1
276
1
 42
1.0
 72
1
  3

 73
1
 74
1
 75
1
 94
63
  0
MATERIAL
  5
21
102
{ACAD_REACTORS
330
E
102
}
330
E
100
AcDbMaterial
  1
Global
  2

 70
0
 40
1.0
 71
1
 41
1.0
 91
-1023410177
 42
1.0
 72
1
  3

 73
1
 74
1
 75
1
 44
0.5
 73
0
 45
1.0
 46
1.0
 77
1
  4

 78
1
 79
1
170
1
 48
1.0
171
1
  6

172
1
173
1
174
1
140
1.0
141
1.0
175
1
  7

176
1
177
1
178
1
143
1.0
179
1
  8

270
1
271
1
272
1
145
1.0
146
1.0
273
1
  9

274
1
275
1
276
1
 42
1.0
 72
1
  3

 73
1
 74
1
 75
1
 94
63
  0
MLINESTYLE
  5
22
102
{ACAD_REACTORS
330
10
102
}
330
10
100
AcDbMlineStyle
  2
Standard
 70
0
  3

 62
256
 51
90.0
 52
90.0
 71
2
 49
0.5
 62
256
  6
BYLAYER
 49
-0.5
 62
256
  6
BYLAYER
  0
MLEADERSTYLE
  5
2C
102
{ACAD_REACTORS
330
F
102
}
330
F
100
AcDbMLeaderStyle
179
2
170
2
171
1
172
0
 90
2
 40
0.0
 41
0.0
173
1
 91
-1056964608
 92
-2
290
1
 42
2.0
291
1
 43
8.0
  3
Standard
 44
4.0
300

342
29
174
1
175
1
176
0
178
1
 93
-1056964608
 45
4.0
292
0
297
0
 46
4.0
 94
-1056964608
 47
1.0
 49
1.0
140
1.0
294
1
141
0.0
177
0
142
1.0
295
0
296
0
143
3.75
271
0
272
9
273
9
  0
DICTIONARY
  5
2D
330
A
100
AcDbDictionary
280
1
281
1
  3
CREATED_BY_EZDXF
350
2E
  3
WRITTEN_BY_EZDXF
350
6E
  0
DICTIONARYVAR
  5
2E
330
2D
100
DictionaryVariables
280
0
  1
1.4.4 @ 2026-07-12T22:23:23.254091+00:00
  0
DICTIONARYVAR
  5
6E
330
2D
100
DictionaryVariables
280
0
  1
1.4.4 @ 2026-07-12T22:23:23.257827+00:00
  0
ENDSEC
  0
EOF
