  0
SECTION
  2
HEADER
  9
$ACADVER
  1
AC1027
  9
$ACADMAINTVER
 70
105
  9
$DWGCODEPAGE
  3
ANSI_1252
  9
$LASTSAVEDBY
  1
ezdxf
  9
$REQUIREDVERSIONS
160
0
  9
$INSBASE
 10
0.0
 20
0.0
 30
0.0
  9
$EXTMIN
 10
1e+20
 20
1e+20
 30
1e+20
  9
$EXTMAX
 10
-1e+20
 20
-1e+20
 30
-1e+20
  9
$LIMMIN
 10
0.0
 20
0.0
  9
$LIMMAX
 10
420.0
 20
297.0
  9
$ORTHOMODE
 70
0
  9
$REGENMODE
 70
1
  9
$FILLMODE
 70
1
  9
$QTEXTMODE
 70
0
  9
$MIRRTEXT
 70
1
  9
$LTSCALE
 40
1.0
  9
$ATTMODE
 70
1
  9
$TEXTSIZE
 40
2.5
  9
$TRACEWID
 40
1.0
  9
$TEXTSTYLE
  7
Standard
  9
$CLAYER
  8
0
  9
$CELTYPE
  6
ByLayer
  9
$CECOLOR
 62
256
  9
$CELTSCALE
 40
1.0
  9
$DISPSILH
 70
0
  9
$DIMSCALE
 40
1.0
  9
$DIMASZ
 40
2.5
  9
$DIMEXO
 40
0.625
  9
$DIMDLI
 40
3.75
  9
$DIMRND
 40
0.0
  9
$DIMDLE
 40
0.0
  9
$DIMEXE
 40
1.25
  9
$DIMTP
 40
0.0
  9
$DIMTM
 40
0.0
  9
$DIMTXT
 40
2.5
  9
$DIMCEN
 40
2.5
  9
$DIMTSZ
 40
0.0
  9
$DIMTOL
 70
0
  9
$DIMLIM
 70
0
  9
$DIMTIH
 70
0
  9
$DIMTOH
 70
0
  9
$DIMSE1
 70
0
  9
$DIMSE2
 70
0
  9
$DIMTAD
 70
1
  9
$DIMZIN
 70
8
  9
$DIMBLK
  1

  9
$DIMASO
 70
1
  9
$DIMSHO
 70
1
  9
$DIMPOST
  1

  9
$DIMAPOST
  1

  9
$DIMALT
 70
0
  9
$DIMALTD
 70
3
  9
$DIMALTF
 40
0.03937007874
  9
$DIMLFAC
 40
1.0
  9
$DIMTOFL
 70
1
  9
$DIMTVP
 40
0.0
  9
$DIMTIX
 70
0
  9
$DIMSOXD
 70
0
  9
$DIMSAH
 70
0
  9
$DIMBLK1
  1

  9
$DIMBLK2
  1

  9
$DIMSTYLE
  2
ISO-25
  9
$DIMCLRD
 70
0
  9
$DIMCLRE
 70
0
  9
$DIMCLRT
 70
0
  9
$DIMTFAC
 40
1.0
  9
$DIMGAP
 40
0.625
  9
$DIMJUST
 70
0
  9
$DIMSD1
 70
0
  9
$DIMSD2
 70
0
  9
$DIMTOLJ
 70
0
  9
$DIMTZIN
 70
8
  9
$DIMALTZ
 70
0
  9
$DIMALTTZ
 70
0
  9
$DIMUPT
 70
0
  9
$DIMDEC
 70
2
  9
$DIMTDEC
 70
2
  9
$DIMALTU
 70
2
  9
$DIMALTTD
 70
3
  9
$DIMTXSTY
  7
Standard
  9
$DIMAUNIT
 70
0
  9
$DIMADEC
 70
0
  9
$DIMALTRND
 40
0.0
  9
$DIMAZIN
 70
0
  9
$DIMDSEP
 70
44
  9
$DIMATFIT
 70
3
  9
$DIMFRAC
 70
0
  9
$DIMLDRBLK
  1

  9
$DIMLUNIT
 70
2
  9
$DIMLWD
 70
-2
  9
$DIMLWE
 70
-2
  9
$DIMTMOVE
 70
0
  9
$DIMFXL
 40
1.0
  9
$DIMFXLON
 70
0
  9
$DIMJOGANG
 40
0.785398163397
  9
$DIMTFILL
 70
0
  9
$DIMTFILLCLR
 70
0
  9
$DIMARCSYM
 70
0
  9
$DIMLTYPE
  6

  9
$DIMLTEX1
  6

  9
$DIMLTEX2
  6

  9
$DIMTXTDIRECTION
 70
0
  9
$LUNITS
 70
2
  9
$LUPREC
 70
4
  9
$SKETCHINC
 40
1.0
  9
$FILLETRAD
 40
10.0
  9
$AUNITS
 70
0
  9
$AUPREC
 70
2
  9
$MENU
  1
.
  9
$ELEVATION
 40
0.0
  9
$PELEVATION
 40
0.0
  9
$THICKNESS
 40
0.0
  9
$LIMCHECK
 70
0
  9
$CHAMFERA
 40
0.0
  9
$CHAMFERB
 40
0.0
  9
$CHAMFERC
 40
0.0
  9
$CHAMFERD
 40
0.0
  9
$SKPOLY
 70
0
  9
$TDCREATE
 40
2461235.016238426
  9
$TDUCREATE
 40
2458532.153996898
  9
$TDUPDATE
 40
2461235.016238426
  9
$TDUUPDATE
 40
2458532.1544311
  9
$TDINDWG
 40
0.0
  9
$TDUSRTIMER
 40
0.0
  9
$USRTIMER
 70
1
  9
$ANGBASE
 50
0.0
  9
$ANGDIR
 70
0
  9
$PDMODE
 70
0
  9
$PDSIZE
 40
0.0
  9
$PLINEWID
 40
0.0
  9
$SPLFRAME
 70
0
  9
$SPLINETYPE
 70
6
  9
$SPLINESEGS
 70
8
  9
$HANDSEED
  5
6F
  9
$SURFTAB1
 70
6
  9
$SURFTAB2
 70
6
  9
$SURFTYPE
 70
6
  9
$SURFU
 70
6
  9
$SURFV
 70
6
  9
$UCSBASE
  2

  9
$UCSNAME
  2

  9
$UCSORG
 10
0.0
 20
0.0
 30
0.0
  9
$UCSXDIR
 10
1.0
 20
0.0
 30
0.0
  9
$UCSYDIR
 10
0.0
 20
1.0
 30
0.0
  9
$UCSORTHOREF
  2

  9
$UCSORTHOVIEW
 70
0
  9
$UCSORGTOP
 10
0.0
 20
0.0
 30
0.0
  9
$UCSORGBOTTOM
 10
0.0
 20
0.0
 30
0.0
  9
$UCSORGLEFT
 10
0.0
 20
0.0
 30
0.0
  9
$UCSORGRIGHT
 10
0.0
 20
0.0
 30
0.0
  9
$UCSORGFRONT
 10
0.0
 20
0.0
 30
0.0
  9
$UCSORGBACK
 10
0.0
 20
0.0
 30
0.0
  9
$PUCSBASE
  2

  9
$PUCSNAME
  2

  9
$PUCSORG
 10
0.0
 20
0.0
 30
0.0
  9
$PUCSXDIR
 10
1.0
 20
0.0
 30
0.0
  9
$PUCSYDIR
 10
0.0
 20
1.0
 30
0.0
  9
$PUCSORTHOREF
  2

  9
$PUCSORTHOVIEW
 70
0
  9
$PUCSORGTOP
 10
0.0
 20
0.0
 30
0.0
  9
$PUCSORGBOTTOM
 10
0.0
 20
0.0
 30
0.0
  9
$PUCSORGLEFT
 10
0.0
 20
0.0
 30
0.0
  9
$PUCSORGRIGHT
 10
0.0
 20
0.0
 30
0.0
  9
$PUCSORGFRONT
 10
0.0
 20
0.0
 30
0.0
  9
$PUCSORGBACK
 10
0.0
 20
0.0
 30
0.0
  9
$USERI1
 70
0
  9
$USERI2
 70
0
  9
$USERI3
 70
0
  9
$USERI4
 70
0
  9
$USERI5
 70
0
  9
$USERR1
 40
0.0
  9
$USERR2
 40
0.0
  9
$USERR3
 40
0.0
  9
$USERR4
 40
0.0
  9
$USERR5
 40
0.0
  9
$WORLDVIEW
 70
1
  9
$SHADEDGE
 70
3
  9
$SHADEDIF
 70
70
  9
$TILEMODE
 70
1
  9
$MAXACTVP
 70
64
  9
$PINSBASE
 10
0.0
 20
0.0
 30
0.0
  9
$PLIMCHECK
 70
0
  9
$PEXTMIN
 10
1e+20
 20
1e+20
 30
1e+20
  9
$PEXTMAX
 10
-1e+20
 20
-1e+20
 30
-1e+20
  9
$PLIMMIN
 10
0.0
 20
0.0
  9
$PLIMMAX
 10
420.0
 20
297.0
  9
$UNITMODE
 70
0
  9
$VISRETAIN
 70
1
  9
$PLINEGEN
 70
0
  9
$PSLTSCALE
 70
1
  9
$TREEDEPTH
 70
3020
  9
$CMLSTYLE
  2
Standard
  9
$CMLJUST
 70
0
  9
$CMLSCALE
 40
20.0
  9
$PROXYGRAPHICS
 70
1
  9
$MEASUREMENT
 70
1
  9
$CELWEIGHT
370
-1
  9
$ENDCAPS
280
0
  9
$JOINSTYLE
280
0
  9
$LWDISPLAY
290
0
  9
$INSUNITS
 70
6
  9
$HYPERLINKBASE
  1

  9
$STYLESHEET
  1

  9
$XEDIT
290
1
  9
$CEPSNTYPE
380
0
  9
$PSTYLEMODE
290
1
  9
$FINGERPRINTGUID
  2
{4FABE03E-DC8F-4EB5-ACE3-05F32970DE72}
  9
$VERSIONGUID
  2
{ACA1770C-25CD-489C-A272-F7A6BE21CC60}
  9
$EXTNAMES
290
1
  9
$PSVPSCALE
 40
0.0
  9
$OLESTARTUP
290
0
  9
$SORTENTS
280
127
  9
$INDEXCTL
280
0
  9
$HIDETEXT
280
1
  9
$XCLIPFRAME
280
1
  9
$HALOGAP
280
0
  9
$OBSCOLOR
 70
257
  9
$OBSLTYPE
280
0
  9
$INTERSECTIONDISPLAY
280
0
  9
$INTERSECTIONCOLOR
 70
257
  9
$DIMASSOC
280
2
  9
$PROJECTNAME
  1

  9
$CAMERADISPLAY
290
0
  9
$LENSLENGTH
 40
50.0
  9
$CAMERAHEIGHT
 40
0.0
  9
$STEPSPERSEC
 40
24.0
  9
$STEPSIZE
 40
100.0
  9
$3DDWFPREC
 40
2.0
  9
$PSOLWIDTH
 40
0.005
  9
$PSOLHEIGHT
 40
0.08
  9
$LOFTANG1
 40
1.570796326795
  9
$LOFTANG2
 40
1.570796326795
  9
$LOFTMAG1
 40
0.0
  9
$LOFTMAG2
 40
0.0
  9
$LOFTPARAM
 70
7
  9
$LOFTNORMALS
280
1
  9
$LATITUDE
 40
37.795
  9
$LONGITUDE
 40
-122.394
  9
$NORTHDIRECTION
 40
0.0
  9
$TIMEZONE
 70
-8000
  9
$LIGHTGLYPHDISPLAY
280
1
  9
$TILEMODELIGHTSYNCH
280
1
  9
$CMATERIAL
347
20
  9
$SOLIDHIST
280
0
  9
$SHOWHIST
280
1
  9
$DWFFRAME
280
2
  9
$DGNFRAME
280
2
  9
$REALWORLDSCALE
290
1
  9
$INTERFERECOLOR
 62
256
  9
$CSHADOW
280
0
  9
$SHADOWPLANELOCATION
 40
0.0
  0
ENDSEC
  0
SECTION
  2
CLASSES
  0
CLASS
  1
ACDBDICTIONARYWDFLT
  2
AcDbDictionaryWithDefault
  3
ObjectDBX Classes
 90
0
 91
0
280
0
281
0
  0
CLASS
  1
SUN
  2
AcDbSun
  3
SCENEOE
 90
1153
 91
0
280
0
281
0
  0
CLASS
  1
VISUALSTYLE
  2
AcDbVisualStyle
  3
ObjectDBX Classes
 90
4095
 91
0
280
0
281
0
  0
CLASS
  1
MATERIAL
  2
AcDbMaterial
  3
ObjectDBX Classes
 90
1153
 91
0
280
0
281
0
  0
CLASS
  1
SCALE
  2
AcDbScale
  3
ObjectDBX Classes
 90
1153
 91
0
280
0
281
0
  0
CLASS
  1
TABLESTYLE
  2
AcDbTableStyle
  3
ObjectDBX Classes
 90
4095
 91
0
280
0
281
0
  0
CLASS
  1
MLEADERSTYLE
  2
AcDbMLeaderStyle
  3
ACDB_MLEADERSTYLE_CLASS
 90
4095
 91
0
280
0
281
0
  0
CLASS
  1
DICTIONARYVAR
  2
AcDbDictionaryVar
  3
ObjectDBX Classes
 90
0
 91
0
280
0
281
0
  0
CLASS
  1
CELLSTYLEMAP
  2
AcDbCellStyleMap
  3
ObjectDBX Classes
 90
1152
 91
0
280
0
281
0
  0
CLASS
  1
MENTALRAYRENDERSETTINGS
  2
AcDbMentalRayRenderSettings
  3
SCENEOE
 90
1024
 91
0
280
0
281
0
  0
CLASS
  1
ACDBDETAILVIEWSTYLE
  2
AcDbDetailViewStyle
  3
ObjectDBX Classes
 90
1025
 91
0
280
0
281
0
  0
CLASS
  1
ACDBSECTIONVIEWSTYLE
  2
AcDbSectionViewStyle
  3
ObjectDBX Classes
 90
1025
 91
0
280
0
281
0
  0
CLASS
  1
RASTERVARIABLES
  2
AcDbRasterVariables
  3
ISM
 90
0
 91
0
280
0
281
0
  0
CLASS
  1
LAYOUT
  2
AcDbLayout
  3
ObjectDBX Classes
 90
0
 91
0
280
0
281
0
  0
CLASS
  1
ACDBPLACEHOLDER
  2
AcDbPlaceHolder
  3
ObjectDBX Classes
 90
0
 91
0
280
0
281
0
  0
ENDSEC
  0
SECTION
  2
TABLES
  0
TABLE
  2
VPORT
  5
8
330
0
100
AcDbSymbolTable
 70
1
  0
VPORT
  5
23
330
8
100
AcDbSymbolTableRecord
100
AcDbViewportTableRecord
  2
*Active
 70
0
 10
0.0
 20
0.0
 11
1.0
 21
1.0
 12
0.0
 22
0.0
 13
0.0
 23
0.0
 14
0.5
 24
0.5
 15
0.5
 25
0.5
 16
0.0
 26
0.0
 36
1.0
 17
0.0
 27
0.0
 37
0.0
 40
1000.0
 41
1.34
 42
50.0
 43
0.0
 44
0.0
 50
0.0
 51
0.0
 71
0
 72
1000
 73
1
 74
3
 75
0
 76
0
 77
0
 78
0
281
0
 65
0
146
0.0
  0
ENDTAB
  0
TABLE
  2
LTYPE
  5
2
330
0
100
AcDbSymbolTable
 70
3
  0
LTYPE
  5
24
330
2
100
AcDbSymbolTableRecord
100
AcDbLinetypeTableRecord
  2
ByBlock
 70
0
  3

 72
65
 73
0
 40
0.0
  0
LTYPE
  5
25
330
2
100
AcDbSymbolTableRecord
100
AcDbLinetypeTableRecord
  2
ByLayer
 70
0
  3

 72
65
 73
0
 40
0.0
  0
LTYPE
  5
26
330
2
100
AcDbSymbolTableRecord
100
AcDbLinetypeTableRecord
  2
Continuous
 70
0
  3

 72
65
 73
0
 40
0.0
  0
ENDTAB
  0
TABLE
  2
LAYER
  5
1
330
0
100
AcDbSymbolTable
 70
5
  0
LAYER
  5
27
330
1
100
AcDbSymbolTableRecord
100
AcDbLayerTableRecord
  2
0
 70
0
 62
7
  6
Continuous
370
-3
390
13
347
21
  0
LAYER
  5
28
330
1
100
AcDbSymbolTableRecord
100
AcDbLayerTableRecord
  2
Defpoints
 70
0
 62
7
  6
Continuous
290
0
370
-3
390
13
347
21
  0
LAYER
  5
2F
330
1
100
AcDbSymbolTableRecord
100
AcDbLayerTableRecord
  2
CADASTRE_PARCELLES
 70
0
 62
7
  6
Continuous
370
-3
390
13
347
21
  0
LAYER
  5
30
330
1
100
AcDbSymbolTableRecord
100
AcDbLayerTableRecord
  2
CADASTRE_BATI
 70
0
 62
2
  6
Continuous
370
-3
390
13
347
21
  0
LAYER
  5
31
330
1
100
AcDbSymbolTableRecord
100
AcDbLayerTableRecord
  2
CADASTRE_CADRE
 70
0
 62
8
  6
Continuous
370
-3
390
13
347
21
  0
ENDTAB
  0
TABLE
  2
STYLE
  5
5
330
0
100
AcDbSymbolTable
 70
1
  0
STYLE
  5
29
330
5
100
AcDbSymbolTableRecord
100
AcDbTextStyleTableRecord
  2
Standard
 70
0
 40
0.0
 41
1.0
 50
0.0
 71
0
 42
2.5
  3
txt
  4

  0
ENDTAB
  0
TABLE
  2
VIEW
  5
7
330
0
100
AcDbSymbolTable
 70
0
  0
ENDTAB
  0
TABLE
  2
UCS
  5
6
330
0
100
AcDbSymbolTable
 70
0
  0
ENDTAB
  0
TABLE
  2
APPID
  5
3
330
0
100
AcDbSymbolTable
 70
3
  0
APPID
  5
2A
330
3
100
AcDbSymbolTableRecord
100
AcDbRegAppTableRecord
  2
ACAD
 70
0
  0
APPID
  5
6C
330
3
100
AcDbSymbolTableRecord
100
AcDbRegAppTableRecord
  2
HATCHBACKGROUNDCOLOR
 70
0
  0
APPID
  5
6D
330
3
100
AcDbSymbolTableRecord
100
AcDbRegAppTableRecord
  2
EZDXF
 70
0
  0
ENDTAB
  0
TABLE
  2
DIMSTYLE
  5
4
330
0
100
AcDbSymbolTable
 70
1
100
AcDbDimStyleTable
  0
DIMSTYLE
105
2B
330
4
100
AcDbSymbolTableRecord
100
AcDbDimStyleTableRecord
  2
Standard
 70
0
 40
1.0
 41
2.5
 42
0.625
 43
3.75
 44
1.25
 45
0.0
 46
0.0
 47
0.0
 48
0.0
 49
2.5
140
2.5
141
2.5
142
0.0
143
0.03937007874
144
1.0
145
0.0
146
1.0
147
0.625
148
0.0
 69
0
 70
0
 71
0
 72
0
 73
0
 74
0
 75
0
 76
0
 77
1
 78
8
 79
3
170
0
171
3
172
1
173
0
174
0
175
0
176
0
177
0
178
0
179
2
271
2
272
2
273
2
274
3
275
0
276
0
277
2
278
44
279
0
280
0
281
0
282
0
283
0
284
8
285
0
286
0
288
0
289
3
290
0
371
-2
372
-2
  0
ENDTAB
  0
TABLE
  2
BLOCK_RECORD
  5
9
330
0
100
AcDbSymbolTable
 70
2
  0
BLOCK_RECORD
  5
17
330
9
100
AcDbSymbolTableRecord
100
AcDbBlockTableRecord
  2
*Model_Space
340
1A
 70
0
280
1
281
0
  0
BLOCK_RECORD
  5
1B
330
9
100
AcDbSymbolTableRecord
100
AcDbBlockTableRecord
  2
*Paper_Space
340
1E
 70
0
280
1
281
0
  0
ENDTAB
  0
ENDSEC
  0
SECTION
  2
BLOCKS
  0
BLOCK
  5
18
330
17
100
AcDbEntity
  8
0
100
AcDbBlockBegin
  2
*Model_Space
 70
0
 10
0.0
 20
0.0
 30
0.0
  3
*Model_Space
  1

  0
ENDBLK
  5
19
330
17
100
AcDbEntity
  8
0
100
AcDbBlockEnd
  0
BLOCK
  5
1C
330
1B
100
AcDbEntity
  8
0
100
AcDbBlockBegin
  2
*Paper_Space
 70
0
 10
0.0
 20
0.0
 30
0.0
  3
*Paper_Space
  1

  0
ENDBLK
  5
1D
330
1B
100
AcDbEntity
  8
0
100
AcDbBlockEnd
  0
ENDSEC
  0
SECTION
  2
ENTITIES
  0
LINE
  5
32
330
17
100
AcDbEntity
  8
CADASTRE_PARCELLES
100
AcDbLine
 10
-2.167654530610889
 20
-15.681625737808645
 30
0.0
 11
58.89923793403432
 21
-15.715495339594781
 31
0.0
  0
LINE
  5
33
330
17
100
AcDbEntity
  8
CADASTRE_PARCELLES
100
AcDbLine
 10
16.95173581666313
 20
38.865368329919875
 30
0.0
 11
-2.167654530610889
 21
23.928873835131526
 31
0.0
  0
LINE
  5
34
330
17
100
AcDbEntity
  8
CADASTRE_PARCELLES
100
AcDbLine
 10
43.590177815174684
 20
27.99322607833892
 30
0.0
 11
58.89923793403432
 21
8.365791702643037
 31
0.0
  0
LINE
  5
35
330
17
100
AcDbEntity
  8
CADASTRE_PARCELLES
100
AcDbLine
 10
24.978831498418003
 20
38.56054191105068
 30
0.0
 11
40.01693480089307
 21
19.322607958689332
 31
0.0
  0
LINE
  5
36
330
17
100
AcDbEntity
  8
CADASTRE_PARCELLES
100
AcDbLine
 10
29.8052497880999
 20
32.328535137698054
 30
0.0
 11
10.160880609182641
 21
16.9856054186821
 31
0.0
  0
LINE
  5
37
330
17
100
AcDbEntity
  8
CADASTRE_PARCELLES
100
AcDbLine
 10
-0.8806096534244716
 20
2.9466553777456284
 30
0.0
 11
29.55122777284123
 21
1.828958511352539
 31
0.0
  0
LINE
  5
38
330
17
100
AcDbEntity
  8
CADASTRE_PARCELLES
100
AcDbLine
 10
44.50465707015246
 20
10.855207451619208
 30
0.0
 11
43.60711261630058
 21
-15.664690936915576
 31
0.0
  0
LINE
  5
39
330
17
100
AcDbEntity
  8
CADASTRE_PARCELLES
100
AcDbLine
 10
-0.8806096534244716
 20
2.9635901786386967
 30
0.0
 11
16.34208298008889
 21
2.133784929290414
 31
0.0
  0
LINE
  5
3A
330
17
100
AcDbEntity
  8
CADASTRE_PARCELLES
100
AcDbLine
 10
58.89923793403432
 20
36.54530059080571
 30
0.0
 11
45.06350550358184
 21
26.062658762559295
 31
0.0
  0
LINE
  5
3B
330
17
100
AcDbEntity
  8
CADASTRE_PARCELLES
100
AcDbLine
 10
3.674851819872856
 20
2.7095681643113494
 30
0.0
 11
44.14902624883689
 21
1.0668924655765295
 31
0.0
  0
LINE
  5
3C
330
17
100
AcDbEntity
  8
CADASTRE_PARCELLES
100
AcDbLine
 10
-0.8806096534244716
 20
2.8958509750664234
 30
0.0
 11
16.20660457201302
 21
2.218458934687078
 31
0.0
  0
LINE
  5
3D
330
17
100
AcDbEntity
  8
CADASTRE_PARCELLES
100
AcDbLine
 10
32.5317527516745
 20
18.069432684220374
 30
0.0
 11
12.413209144258872
 21
2.4555461490526795
 31
0.0
  0
LINE
  5
3E
330
17
100
AcDbEntity
  8
CADASTRE_PARCELLES
100
AcDbLine
 10
24.40304826386273
 20
-1.1685012681409717
 30
0.0
 11
36.47756138839759
 21
-1.4055884825065732
 31
0.0
  0
LINE
  5
3F
330
17
100
AcDbEntity
  8
CADASTRE_PARCELLES
100
AcDbLine
 10
52.4640135478694
 20
0.23708721529692411
 30
0.0
 11
51.93903471622616
 21
-15.647756136022508
 31
0.0
  0
LINE
  5
40
330
17
100
AcDbEntity
  8
CADASTRE_PARCELLES
100
AcDbLine
 10
-0.0338696027174592
 20
25.63928873743862
 30
0.0
 11
5.977984758093953
 21
17.696867061778903
 31
0.0
  0
LINE
  5
41
330
17
100
AcDbEntity
  8
CADASTRE_PARCELLES
100
AcDbLine
 10
35.35986452130601
 20
38.865368329919875
 30
0.0
 11
43.77646062639542
 21
27.75613886397332
 31
0.0
  0
LINE
  5
42
330
17
100
AcDbEntity
  8
CADASTRE_PARCELLES
100
AcDbLine
 10
36.05419136304408
 20
-1.4055884825065732
 30
0.0
 11
44.081287044798955
 21
-1.862828110344708
 31
0.0
  0
LINE
  5
43
330
17
100
AcDbEntity
  8
CADASTRE_PARCELLES
100
AcDbLine
 10
54.25910245557316
 20
1.1176968682557344
 30
0.0
 11
58.89923793403432
 21
-4.911092292517424
 31
0.0
  0
LINE
  5
44
330
17
100
AcDbEntity
  8
CADASTRE_PARCELLES
100
AcDbLine
 10
42.23539373395033
 20
16.680779000744224
 30
0.0
 11
44.52159187127836
 21
10.719729043543339
 31
0.0
  0
LINE
  5
45
330
17
100
AcDbEntity
  8
CADASTRE_PARCELLES
100
AcDbLine
 10
27.857747671194375
 20
-1.2701100744307041
 30
0.0
 11
31.31244707852602
 21
-1.320914477109909
 31
0.0
  0
LINE
  5
46
330
17
100
AcDbEntity
  8
CADASTRE_PARCELLES
100
AcDbLine
 10
1.100762065500021
 20
2.794242168776691
 30
0.0
 11
23.40389500395395
 21
1.9475021185353398
 31
0.0
  0
LINE
  5
47
330
17
100
AcDbEntity
  8
CADASTRE_PARCELLES
100
AcDbLine
 10
58.89923793403432
 20
17.662997459992766
 30
0.0
 11
54.394580863649026
 21
14.174428450874984
 31
0.0
  0
LINE
  5
48
330
17
100
AcDbEntity
  8
CADASTRE_PARCELLES
100
AcDbLine
 10
1.9136325141880661
 20
2.743437766097486
 30
0.0
 11
20.914479254512116
 21
1.9644369194284081
 31
0.0
  0
LINE
  5
49
330
17
100
AcDbEntity
  8
CADASTRE_PARCELLES
100
AcDbLine
 10
44.48772226902656
 20
9.872988993301988
 30
0.0
 11
44.11515664681792
 21
0.3895004251971841
 31
0.0
  0
LINE
  5
4A
330
17
100
AcDbEntity
  8
CADASTRE_PARCELLES
100
AcDbLine
 10
8.247248094296083
 20
2.523285352624953
 30
0.0
 11
16.308213378069922
 21
2.1676545310765505
 31
0.0
  0
LINE
  5
4B
330
17
100
AcDbEntity
  8
CADASTRE_PARCELLES
100
AcDbLine
 10
5.977984758093953
 20
17.71380186267197
 30
0.0
 11
10.245554614346474
 21
17.00254022050649
 31
0.0
  0
LINE
  5
4C
330
17
100
AcDbEntity
  8
CADASTRE_PARCELLES
100
AcDbLine
 10
1.100762065500021
 20
2.8450465723872185
 30
0.0
 11
25.215918712550774
 21
1.7612193068489432
 31
0.0
  0
LINE
  5
4D
330
17
100
AcDbEntity
  8
CADASTRE_PARCELLES
100
AcDbLine
 10
40.66045723948628
 20
38.865368329919875
 30
0.0
 11
37.30736663821153
 21
36.325148177333176
 31
0.0
  0
LINE
  5
4E
330
17
100
AcDbEntity
  8
CADASTRE_PARCELLES
100
AcDbLine
 10
8.230313293403015
 20
2.489415750838816
 30
0.0
 11
9.80524978786707
 21
2.4386113472282887
 31
0.0
  0
LINE
  5
4F
330
17
100
AcDbEntity
  8
CADASTRE_PARCELLES
100
AcDbLine
 10
27.756138865137473
 20
1.879762914031744
 30
0.0
 11
22.607959356158972
 21
1.879762914031744
 31
0.0
  0
LINE
  5
50
330
17
100
AcDbEntity
  8
CADASTRE_PARCELLES
100
AcDbLine
 10
21.930567315546796
 20
1.9305673176422715
 30
0.0
 11
25.24978831456974
 21
1.879762914031744
 31
0.0
  0
LINE
  5
51
330
17
100
AcDbEntity
  8
CADASTRE_PARCELLES
100
AcDbLine
 10
8.90770533401519
 20
2.472480949945748
 30
0.0
 11
23.48856900888495
 21
1.879762914031744
 31
0.0
  0
LINE
  5
52
330
17
100
AcDbEntity
  8
CADASTRE_PARCELLES
100
AcDbLine
 10
24.7586790851783
 20
38.865368329919875
 30
0.0
 11
40.677392040379345
 21
18.543607112020254
 31
0.0
  0
LINE
  5
53
330
17
100
AcDbEntity
  8
CADASTRE_PARCELLES
100
AcDbLine
 10
17.35817104112357
 20
2.184589331969619
 30
0.0
 11
18.933107535587624
 21
2.0660457257181406
 31
0.0
  0
LINE
  5
54
330
17
100
AcDbEntity
  8
CADASTRE_PARCELLES
100
AcDbLine
 10
54.276037256466225
 20
1.1007620673626661
 30
0.0
 11
52.43014394585043
 21
0.18628281261771917
 31
0.0
  0
LINE
  5
55
330
17
100
AcDbEntity
  8
CADASTRE_PARCELLES
100
AcDbLine
 10
1.100762065500021
 20
2.878916174173355
 30
0.0
 11
14.360711261164397
 21
2.218458934687078
 31
0.0
  0
LINE
  5
56
330
17
100
AcDbEntity
  8
CADASTRE_PARCELLES
100
AcDbLine
 10
25.232853513676673
 20
1.8628281131386757
 30
0.0
 11
24.03048264142126
 21
1.8458933122456074
 31
0.0
  0
LINE
  5
57
330
17
100
AcDbEntity
  8
CADASTRE_PARCELLES
100
AcDbLine
 10
39.796782387653366
 20
19.62743437755853
 30
0.0
 11
42.21845893305726
 21
16.697713801637292
 31
0.0
  0
LINE
  5
58
330
17
100
AcDbEntity
  8
CADASTRE_PARCELLES
100
AcDbLine
 10
31.600338695803657
 20
-1.3378492789343
 30
0.0
 11
35.12277730717324
 21
-1.3547840798273683
 31
0.0
  0
LINE
  5
59
330
17
100
AcDbEntity
  8
CADASTRE_PARCELLES
100
AcDbLine
 10
20.660457239253446
 20
-14.563928870484233
 30
0.0
 11
20.35563082084991
 21
-15.664690936915576
 31
0.0
  0
LINE
  5
5A
330
17
100
AcDbEntity
  8
CADASTRE_PARCELLES
100
AcDbLine
 10
20.643522438127548
 20
-14.546994069591165
 30
0.0
 11
20.321761218830943
 21
-15.664690936915576
 31
0.0
  0
LINE
  5
5B
330
17
100
AcDbEntity
  8
CADASTRE_PARCELLES
100
AcDbLine
 10
20.60965283610858
 20
-14.546994069591165
 30
0.0
 11
20.287891616811976
 21
-15.664690936915576
 31
0.0
  0
LINE
  5
5C
330
17
100
AcDbEntity
  8
CADASTRE_PARCELLES
100
AcDbLine
 10
41.558001693338156
 20
30.66892463900149
 30
0.0
 11
44.7756138863042
 21
26.486028788611293
 31
0.0
  0
LINE
  5
5D
330
17
100
AcDbEntity
  8
CADASTRE_PARCELLES
100
AcDbLine
 10
20.575783234089613
 20
-14.530059268698096
 30
0.0
 11
20.25402201479301
 21
-15.664690936915576
 31
0.0
  0
LINE
  5
5E
330
17
100
AcDbEntity
  8
CADASTRE_PARCELLES
100
AcDbLine
 10
35.86790855182335
 20
-1.3717188807204366
 30
0.0
 11
34.75021168473177
 21
-1.3886536816135049
 31
0.0
  0
LINE
  5
5F
330
17
100
AcDbEntity
  8
CADASTRE_PARCELLES
100
AcDbLine
 10
52.023708721389994
 20
-13.784928023815155
 30
0.0
 11
51.98983911937103
 21
-14.597798473201692
 31
0.0
  0
LINE
  5
60
330
17
100
AcDbEntity
  8
CADASTRE_PARCELLES
100
AcDbLine
 10
38.187976291170344
 20
21.60880609601736
 30
0.0
 11
42.184589330805466
 21
16.74851820524782
 31
0.0
  0
LINE
  5
61
330
17
100
AcDbEntity
  8
CADASTRE_PARCELLES
100
AcDbLine
 10
58.71295512281358
 20
36.40982218272984
 30
0.0
 11
57.84928027098067
 21
35.76629974413663
 31
0.0
  0
LINE
  5
62
330
17
100
AcDbEntity
  8
CADASTRE_PARCELLES
100
AcDbLine
 10
7.061812023166567
 20
2.6248941589146852
 30
0.0
 11
6.2997459773905575
 21
2.5910245571285486
 31
0.0
  0
LINE
  5
63
330
17
100
AcDbEntity
  8
CADASTRE_PARCELLES
100
AcDbLine
 10
57.595258255722
 20
10.008467401377857
 30
0.0
 11
58.89923793403432
 21
8.348856901749969
 31
0.0
  0
LWPOLYLINE
  5
64
330
17
100
AcDbEntity
  8
CADASTRE_BATI
100
AcDbPolyline
 90
9
 70
1
 10
28.501270109787583
 20
-1.3039796762168407
 10
27.840812870068476
 20
-9.398814561776817
 10
27.01100762025453
 20
-9.381879760883749
 10
26.807790008140728
 20
-15.647756136022508
 10
35.529212531633675
 20
-15.647756136022508
 10
36.00338695989922
 20
-9.652836577035487
 10
35.24132091435604
 20
-9.568162571638823
 10
35.22438611323014
 20
-9.229466550983489
 10
35.74936494464055
 20
-1.4225232833996415
  0
LWPOLYLINE
  5
65
330
17
100
AcDbEntity
  8
CADASTRE_BATI
100
AcDbPolyline
 90
4
 70
1
 10
54.25910245557316
 20
1.0499576646834612
 10
52.4640135478694
 20
0.18628281261771917
 10
51.97290431824513
 20
-15.647756136022508
 10
54.919559695059434
 20
-15.647756136022508
  0
LWPOLYLINE
  5
66
330
17
100
AcDbEntity
  8
CADASTRE_BATI
100
AcDbPolyline
 90
11
 70
1
 10
7.586790854809806
 20
14.665537680499256
 10
0.3217612188309431
 20
8.95850973855704
 10
0.18628281052224338
 20
8.94157493673265
 10
-0.3217612199950963
 20
9.381879763677716
 10
-1.2870448778849095
 20
3.928873836994171
 10
2.032176121370867
 20
6.282811177894473
 10
2.1337849274277687
 20
6.282811177894473
 10
3.0651989832986146
 20
5.317527520470321
 10
3.149872988462448
 20
5.3344623213633895
 10
10.313293818384409
 20
10.922946656122804
 10
10.330228619277477
 20
10.990685859695077
  0
LWPOLYLINE
  5
67
330
17
100
AcDbEntity
  8
CADASTRE_BATI
100
AcDbPolyline
 90
16
 70
1
 10
31.888230313081294
 20
29.60203217435628
 10
26.689246400957927
 20
25.673158339224756
 10
32.5317527516745
 20
18.204911092296243
 10
32.54868755256757
 20
18.052497883327305
 10
31.837425909936428
 20
17.442845046520233
 10
35.69856054172851
 20
12.633361558429897
 10
35.73243014374748
 20
12.48094834946096
 10
34.530059271492064
 20
11.566469094716012
 10
34.22523285332136
 20
3.539373413659632
 10
28.077900084434077
 20
3.590177816338837
 10
27.942421676358208
 20
1.9305673176422715
 10
34.47925486858003
 20
1.5410668943077326
 10
44.11515664681792
 20
1.1176968682557344
 10
44.48772226902656
 20
10.804403048940003
 10
42.25232853507623
 20
16.59610499534756
 10
37.73073666356504
 20
22.099915325641632
  0
LWPOLYLINE
  5
68
330
17
100
AcDbEntity
  8
CADASTRE_BATI
100
AcDbPolyline
 90
3
 70
1
 10
58.86536833201535
 20
34.36071125976741
 10
56.85012701107189
 20
32.76883996464312
 10
54.00508044031449
 20
30.736663842573762
  0
LWPOLYLINE
  5
69
330
17
100
AcDbEntity
  8
CADASTRE_BATI
100
AcDbPolyline
 90
4
 70
1
 10
20.711261642398313
 20
38.0863674832508
 10
15.08890770492144
 20
33.76799322478473
 10
19.559695173287764
 20
27.925486874766648
 10
25.13124470761977
 20
32.108382725156844
  0
LWPOLYLINE
  5
6A
330
17
100
AcDbEntity
  8
CADASTRE_BATI
100
AcDbPolyline
 90
3
 70
1
 10
48.992379339411855
 20
36.64690939709544
 10
50.889077053172514
 20
34.36071125976741
 10
51.66807790007442
 20
38.729889921844006
  0
LWPOLYLINE
  5
6B
330
17
100
AcDbEntity
  8
CADASTRE_CADRE
100
AcDbPolyline
 90
4
 70
1
 10
-2.2184589337557554
 20
38.91617273259908
 10
58.96697713807225
 20
38.91617273259908
 10
58.96697713807225
 20
-16.680778997950256
 10
-2.2184589337557554
 20
-16.680778997950256
  0
ENDSEC
  0
SECTION
  2
OBJECTS
  0
DICTIONARY
  5
A
330
0
100
AcDbDictionary
281
1
  3
ACAD_COLOR
350
B
  3
ACAD_GROUP
350
C
  3
ACAD_LAYOUT
350
D
  3
ACAD_MATERIAL
350
E
  3
ACAD_MLEADERSTYLE
350
F
  3
ACAD_MLINESTYLE
350
10
  3
ACAD_PLOTSETTINGS
350
11
  3
ACAD_PLOTSTYLENAME
350
12
  3
ACAD_SCALELIST
350
14
  3
ACAD_TABLESTYLE
350
15
  3
ACAD_VISUALSTYLE
350
16
  3
EZDXF_META
350
2D
  0
DICTIONARY
  5
B
330
A
100
AcDbDictionary
281
1
  0
DICTIONARY
  5
C
330
A
100
AcDbDictionary
281
1
  0
DICTIONARY
  5
D
330
A
100
AcDbDictionary
281
1
  3
Model
350
1A
  3
Layout1
350
1E
  0
DICTIONARY
  5
E
330
A
100
AcDbDictionary
281
1
  3
ByBlock
350
1F
  3
ByLayer
350
20
  3
Global
350
21
  0
DICTIONARY
  5
F
330
A
100
AcDbDictionary
281
1
  3
Standard
350
2C
  0
DICTIONARY
  5
10
330
A
100
AcDbDictionary
281
1
  3
Standard
350
22
  0
DICTIONARY
  5
11
330
A
100
AcDbDictionary
281
1
  0
ACDBDICTIONARYWDFLT
  5
12
330
A
100
AcDbDictionary
281
1
  3
Normal
350
13
100
AcDbDictionaryWithDefault
340
13
  0
ACDBPLACEHOLDER
  5
13
330
12
  0
DICTIONARY
  5
14
330
A
100
AcDbDictionary
281
1
  0
DICTIONARY
  5
15
330
A
100
AcDbDictionary
281
1
  0
DICTIONARY
  5
16
330
A
100
AcDbDictionary
281
1
  0
LAYOUT
  5
1A
330
D
100
AcDbPlotSettings
  1

  4
A3
  6

 40
7.5
 41
20.0
 42
7.5
 43
20.0
 44
420.0
 45
297.0
 46
0.0
 47
0.0
 48
0.0
 49
0.0
140
0.0
141
0.0
142
1.0
143
1.0
 70
1024
 72
1
 73
0
 74
5
  7

 75
16
 76
0
 77
2
 78
300
147
1.0
148
0.0
149
0.0
100
AcDbLayout
  1
Model
 70
1
 71
0
 10
0.0
 20
0.0
 11
420.0
 21
297.0
 12
0.0
 22
0.0
 32
0.0
 14
1e+20
 24
1e+20
 34
1e+20
 15
-1e+20
 25
-1e+20
 35
-1e+20
146
0.0
 13
0.0
 23
0.0
 33
0.0
 16
1.0
 26
0.0
 36
0.0
 17
0.0
 27
1.0
 37
0.0
 76
1
330
17
  0
LAYOUT
  5
1E
330
D
100
AcDbPlotSettings
  1

  4
A3
  6

 40
7.5
 41
20.0
 42
7.5
 43
20.0
 44
420.0
 45
297.0
 46
0.0
 47
0.0
 48
0.0
 49
0.0
140
0.0
141
0.0
142
1.0
143
1.0
 70
0
 72
1
 73
0
 74
5
  7

 75
16
 76
0
 77
2
 78
300
147
1.0
148
0.0
149
0.0
100
AcDbLayout
  1
Layout1
 70
1
 71
1
 10
0.0
 20
0.0
 11
420.0
 21
297.0
 12
0.0
 22
0.0
 32
0.0
 14
1e+20
 24
1e+20
 34
1e+20
 15
-1e+20
 25
-1e+20
 35
-1e+20
146
0.0
 13
0.0
 23
0.0
 33
0.0
 16
1.0
 26
0.0
 36
0.0
 17
0.0
 27
1.0
 37
0.0
 76
1
330
1B
  0
MATERIAL
  5
1F
102
{ACAD_REACTORS
330
E
102
}
330
E
100
AcDbMaterial
  1
ByBlock
  2

 70
0
 40
1.0
 71
1
 41
1.0
 91
-1023410177
 42
1.0
 72
1
  3

 73
1
 74
1
 75
1
 44
0.5
 73
0
 45
1.0
 46
1.0
 77
1
  4

 78
1
 79
1
170
1
 48
1.0
171
1
  6

172
1
173
1
174
1
140
1.0
141
1.0
175
1
  7

176
1
177
1
178
1
143
1.0
179
1
  8

270
1
271
1
272
1
145
1.0
146
1.0
273
1
  9

274
1
275
1
276
1
 42
1.0
 72
1
  3

 73
1
 74
1
 75
1
 94
63
  0
MATERIAL
  5
20
102
{ACAD_REACTORS
330
E
102
}
330
E
100
AcDbMaterial
  1
ByLayer
  2

 70
0
 40
1.0
 71
1
 41
1.0
 91
-1023410177
 42
1.0
 72
1
  3

 73
1
 74
1
 75
1
 44
0.5
 73
0
 45
1.0
 46
1.0
 77
1
  4

 78
1
 79
1
170
1
 48
1.0
171
1
  6

172
1
173
1
174
1
140
1.0
141
1.0
175
1
  7

176
1
177
1
178
1
143
1.0
179
1
  8

270
1
271
1
272
1
145
1.0
146
1.0
273
1
  9

274
1
275
1
276
1
 42
1.0
 72
1
  3

 73
1
 74
1
 75
1
 94
63
  0
MATERIAL
  5
21
102
{ACAD_REACTORS
330
E
102
}
330
E
100
AcDbMaterial
  1
Global
  2

 70
0
 40
1.0
 71
1
 41
1.0
 91
-1023410177
 42
1.0
 72
1
  3

 73
1
 74
1
 75
1
 44
0.5
 73
0
 45
1.0
 46
1.0
 77
1
  4

 78
1
 79
1
170
1
 48
1.0
171
1
  6

172
1
173
1
174
1
140
1.0
141
1.0
175
1
  7

176
1
177
1
178
1
143
1.0
179
1
  8

270
1
271
1
272
1
145
1.0
146
1.0
273
1
  9

274
1
275
1
276
1
 42
1.0
 72
1
  3

 73
1
 74
1
 75
1
 94
63
  0
MLINESTYLE
  5
22
102
{ACAD_REACTORS
330
10
102
}
330
10
100
AcDbMlineStyle
  2
Standard
 70
0
  3

 62
256
 51
90.0
 52
90.0
 71
2
 49
0.5
 62
256
  6
BYLAYER
 49
-0.5
 62
256
  6
BYLAYER
  0
MLEADERSTYLE
  5
2C
102
{ACAD_REACTORS
330
F
102
}
330
F
100
AcDbMLeaderStyle
179
2
170
2
171
1
172
0
 90
2
 40
0.0
 41
0.0
173
1
 91
-1056964608
 92
-2
290
1
 42
2.0
291
1
 43
8.0
  3
Standard
 44
4.0
300

342
29
174
1
175
1
176
0
178
1
 93
-1056964608
 45
4.0
292
0
297
0
 46
4.0
 94
-1056964608
 47
1.0
 49
1.0
140
1.0
294
1
141
0.0
177
0
142
1.0
295
0
296
0
143
3.75
271
0
272
9
273
9
  0
DICTIONARY
  5
2D
330
A
100
AcDbDictionary
280
1
281
1
  3
CREATED_BY_EZDXF
350
2E
  3
WRITTEN_BY_EZDXF
350
6E
  0
DICTIONARYVAR
  5
2E
330
2D
100
DictionaryVariables
280
0
  1
1.4.4 @ 2026-07-12T22:23:23.232564+00:00
  0
DICTIONARYVAR
  5
6E
330
2D
100
DictionaryVariables
280
0
  1
1.4.4 @ 2026-07-12T22:23:23.240003+00:00
  0
ENDSEC
  0
EOF
